<svg preserveAspectRatio="none" width="100%" height="100%" overflow="visible" style="display: block;" viewBox="0 0 31.1667 29.75" fill="none" xmlns="http://www.w3.org/2000/svg">
<g id="Icon">
<path d="M21.25 9.91666C23.5043 9.91666 25.6663 10.8122 27.2604 12.4063C28.8545 14.0003 29.75 16.1623 29.75 18.4167V28.3333H24.0833V18.4167C24.0833 17.6652 23.7848 16.9445 23.2535 16.4132C22.7221 15.8818 22.0014 15.5833 21.25 15.5833C20.4985 15.5833 19.7779 15.8818 19.2465 16.4132C18.7152 16.9445 18.4167 17.6652 18.4167 18.4167V28.3333H12.75V18.4167C12.75 16.1623 13.6455 14.0003 15.2396 12.4063C16.8336 10.8122 18.9957 9.91666 21.25 9.91666Z" stroke="var(--stroke-0, white)" stroke-width="2.83333" stroke-linecap="round" stroke-linejoin="round"/>
<path d="M7.08333 11.3333H1.41667V28.3333H7.08333V11.3333Z" stroke="var(--stroke-0, white)" stroke-width="2.83333" stroke-linecap="round" stroke-linejoin="round"/>
<path d="M4.25 7.08333C5.81481 7.08333 7.08333 5.81481 7.08333 4.25C7.08333 2.68519 5.81481 1.41667 4.25 1.41667C2.68519 1.41667 1.41667 2.68519 1.41667 4.25C1.41667 5.81481 2.68519 7.08333 4.25 7.08333Z" stroke="var(--stroke-0, white)" stroke-width="2.83333" stroke-linecap="round" stroke-linejoin="round"/>
</g>
</svg>
