<svg preserveAspectRatio="none" width="100%" height="100%" overflow="visible" style="display: block;" viewBox="0 0 34.3558 25.0892" fill="none" xmlns="http://www.w3.org/2000/svg">
<g id="Icon">
<path d="M32.1096 5.02208C31.9413 4.34975 31.5985 3.73373 31.116 3.23624C30.6334 2.73876 30.0281 2.37743 29.3612 2.18875C26.9246 1.59375 17.1779 1.59375 17.1779 1.59375C17.1779 1.59375 7.43123 1.59375 4.99456 2.24542C4.32766 2.43409 3.72236 2.79542 3.2398 3.29291C2.75724 3.79039 2.41451 4.40641 2.24623 5.07875C1.80028 7.55162 1.58214 10.0602 1.59456 12.5729C1.57866 15.1046 1.79681 17.6323 2.24623 20.1237C2.43175 20.7752 2.78216 21.3678 3.2636 21.8443C3.74503 22.3207 4.34122 22.665 4.99456 22.8437C7.43123 23.4954 17.1779 23.4954 17.1779 23.4954C17.1779 23.4954 26.9246 23.4954 29.3612 22.8437C30.0281 22.6551 30.6334 22.2937 31.116 21.7963C31.5985 21.2988 31.9413 20.6828 32.1096 20.0104C32.5521 17.5562 32.7702 15.0667 32.7612 12.5729C32.7771 10.0413 32.559 7.51357 32.1096 5.02208Z" stroke="var(--stroke-0, white)" stroke-width="3.1875" stroke-linecap="round" stroke-linejoin="round"/>
<path d="M13.9904 17.2054L22.1362 12.5729L13.9904 7.94042V17.2054Z" stroke="var(--stroke-0, white)" stroke-width="3.1875" stroke-linecap="round" stroke-linejoin="round"/>
</g>
</svg>
