<svg preserveAspectRatio="none" width="100%" height="100%" overflow="visible" style="display: block;" viewBox="0 0 31.1667 31.1667" fill="none" xmlns="http://www.w3.org/2000/svg">
<path id="Icon" d="M23.375 7.79167H23.3892M8.5 1.41667H22.6667C26.5787 1.41667 29.75 4.58798 29.75 8.5V22.6667C29.75 26.5787 26.5787 29.75 22.6667 29.75H8.5C4.58798 29.75 1.41667 26.5787 1.41667 22.6667V8.5C1.41667 4.58798 4.58798 1.41667 8.5 1.41667ZM21.25 14.6908C21.4248 15.8698 21.2234 17.074 20.6745 18.1319C20.1255 19.1899 19.257 20.0478 18.1923 20.5837C17.1276 21.1196 15.9211 21.3061 14.7444 21.1167C13.5676 20.9274 12.4805 20.3718 11.6377 19.529C10.7949 18.6862 10.2393 17.5991 10.0499 16.4223C9.86057 15.2455 10.0471 14.039 10.583 12.9744C11.1188 11.9097 11.9768 11.0411 13.0347 10.4922C14.0927 9.94322 15.2968 9.74183 16.4758 9.91667C17.6785 10.095 18.7919 10.6554 19.6516 11.5151C20.5113 12.3748 21.0717 13.4882 21.25 14.6908Z" stroke="var(--stroke-0, white)" stroke-width="2.83333" stroke-linecap="round" stroke-linejoin="round"/>
</svg>
